# xmcd CD database file
#
# Track frame offsets:
#	150
#	13606
#	24784
#	39116
#	53555
#	69238
#	83002
#	96936
#	112204
#	127011
#	138888
#	152228
#	166129
#	180442
#	193885
#
# Disc length: 2760 seconds
#
# Revision: 0
# Processed by: cddbd v1.5PL3 Copyright (c) Steve Scherf et al.
# Submitted via: CDex 1.51
#
DISCID=b60ac60f
DTITLE=John Lee Hooker - Shake Holler and Run
DYEAR=2003
DGENRE=Blues
TTITLE0=Shake Holler and Run
TTITLE1=Jump Me One More Time
TTITLE2=Cool Little Car
TTITLE3=You Receive Me
TTITLE4=Baby You Aint No Good
TTITLE5=Its Stormin And Rainin
TTITLE6=I Wonder Little Darling
TTITLE7=Half A Stranger
TTITLE8=Its Been a Long Time Baby
TTITLE9=Love Money Cant Buy
TTITLE10=Please Take Me Back
TTITLE11=Taxi Driver
TTITLE12=I Love You Baby
TTITLE13=Too Much Boogie
TTITLE14=Hug and Squeeze You
EXTD=YEAR: 2003
EXTT0=
EXTT1=
EXTT2=
EXTT3=
EXTT4=
EXTT5=
EXTT6=
EXTT7=
EXTT8=
EXTT9=
EXTT10=
EXTT11=
EXTT12=
EXTT13=
EXTT14=
PLAYORDER=
